<!DOCTYPE svg PUBLIC "-//W3C//DTD SVG 1.1//EN" "http://www.w3.org/Graphics/SVG/1.1/DTD/svg11.dtd">
<!-- Uploaded to: SVG Repo, www.svgrepo.com, Transformed by: SVG Repo Mixer Tools -->
<svg fill="#ffffff" version="1.1" id="Layer_1" xmlns="http://www.w3.org/2000/svg" xmlns:xlink="http://www.w3.org/1999/xlink" viewBox="0 0 24 24" xml:space="preserve" width="800px" height="800px">
<g id="SVGRepo_bgCarrier" stroke-width="0"/>
<g id="SVGRepo_tracerCarrier" stroke-linecap="round" stroke-linejoin="round"/>
<g id="SVGRepo_iconCarrier"> <style type="text/css"> .st0{fill:none;} </style> <path d="M12,2C6.5,2,2,6.5,2,12s4.5,10,10,10s10-4.5,10-10S17.5,2,12,2z M12.1,19.1C8.2,19.1,5,15.9,5,12s3.2-7.1,7.1-7.1 c1.8,0,3.5,0.7,4.8,1.9l-2,2c-0.8-0.6-1.7-1-2.8-1c-2.4,0-4.3,1.9-4.3,4.3s1.9,4.3,4.3,4.3c2,0,3.4-1.2,3.9-2.8h-3.9v-2.7h6.7 C19.4,13.5,18.1,19.1,12.1,19.1z"/> <rect class="st0" width="24" height="24"/> </g>
</svg>